<svg class="main-svg" xmlns="http://www.w3.org/2000/svg" xmlns:xlink="http://www.w3.org/1999/xlink" width="800" height="550" style="" viewBox="0 0 800 550"><rect x="0" y="0" width="800" height="550" style="fill: rgb(255, 255, 255); fill-opacity: 1;"/><defs id="defs-9a0a93"><g class="clips"><clipPath id="clip9a0a93xyplot" class="plotclip"><rect width="690" height="380"/></clipPath><clipPath class="axesclip" id="clip9a0a93x"><rect x="70" y="0" width="690" height="550"/></clipPath><clipPath class="axesclip" id="clip9a0a93y"><rect x="0" y="100" width="800" height="380"/></clipPath><clipPath class="axesclip" id="clip9a0a93xy"><rect x="70" y="100" width="690" height="380"/></clipPath></g><g class="gradients"/><g class="patterns"/></defs><g class="bglayer"/><g class="layer-below"><g class="imagelayer"/><g class="shapelayer"/></g><g class="cartesianlayer"><g class="subplot xy"><g class="layer-subplot"><g class="shapelayer"/><g class="imagelayer"/></g><g class="minor-gridlayer"><g class="x"/><g class="y"/></g><g class="gridlayer"><g class="x"><path class="xgrid crisp" transform="translate(78.64,0)" d="M0,100v380" style="stroke: rgb(211, 211, 211); stroke-opacity: 1; stroke-width: 1px;"/><path class="xgrid crisp" transform="translate(151.36,0)" d="M0,100v380" style="stroke: rgb(211, 211, 211); stroke-opacity: 1; stroke-width: 1px;"/><path class="xgrid crisp" transform="translate(224.09,0)" d="M0,100v380" style="stroke: rgb(211, 211, 211); stroke-opacity: 1; stroke-width: 1px;"/><path class="xgrid crisp" transform="translate(296.82,0)" d="M0,100v380" style="stroke: rgb(211, 211, 211); stroke-opacity: 1; stroke-width: 1px;"/><path class="xgrid crisp" transform="translate(369.55,0)" d="M0,100v380" style="stroke: rgb(211, 211, 211); stroke-opacity: 1; stroke-width: 1px;"/><path class="xgrid crisp" transform="translate(442.27,0)" d="M0,100v380" style="stroke: rgb(211, 211, 211); stroke-opacity: 1; stroke-width: 1px;"/><path class="xgrid crisp" transform="translate(515,0)" d="M0,100v380" style="stroke: rgb(211, 211, 211); stroke-opacity: 1; stroke-width: 1px;"/><path class="xgrid crisp" transform="translate(587.73,0)" d="M0,100v380" style="stroke: rgb(211, 211, 211); stroke-opacity: 1; stroke-width: 1px;"/><path class="xgrid crisp" transform="translate(660.45,0)" d="M0,100v380" style="stroke: rgb(211, 211, 211); stroke-opacity: 1; stroke-width: 1px;"/><path class="xgrid crisp" transform="translate(733.18,0)" d="M0,100v380" style="stroke: rgb(211, 211, 211); stroke-opacity: 1; stroke-width: 1px;"/></g><g class="y"><path class="ygrid crisp" transform="translate(0,408.18)" d="M70,0h690" style="stroke: rgb(211, 211, 211); stroke-opacity: 1; stroke-width: 1px;"/><path class="ygrid crisp" transform="translate(0,335.45)" d="M70,0h690" style="stroke: rgb(211, 211, 211); stroke-opacity: 1; stroke-width: 1px;"/><path class="ygrid crisp" transform="translate(0,262.73)" d="M70,0h690" style="stroke: rgb(211, 211, 211); stroke-opacity: 1; stroke-width: 1px;"/><path class="ygrid crisp" transform="translate(0,190)" d="M70,0h690" style="stroke: rgb(211, 211, 211); stroke-opacity: 1; stroke-width: 1px;"/><path class="ygrid crisp" transform="translate(0,117.27)" d="M70,0h690" style="stroke: rgb(211, 211, 211); stroke-opacity: 1; stroke-width: 1px;"/></g></g><g class="zerolinelayer"/><g class="layer-between"><g class="shapelayer"/><g class="imagelayer"/></g><path class="xlines-below"/><path class="ylines-below"/><g class="overlines-below"/><g class="xaxislayer-below"/><g class="yaxislayer-below"/><g class="overaxes-below"/><g class="plot" transform="translate(70,100)" clip-path="url(#clip9a0a93xyplot)"><g class="scatterlayer mlayer"><g class="trace scatter traceed4c12" style="stroke-miterlimit: 2; opacity: 1;"><g class="fills"/><g class="errorbars"/><g class="lines"/><g class="points"><path class="point plotly-customdata" transform="translate(186.23,249.05)" d="M3.5,0A3.5,3.5 0 1,1 0,-3.5A3.5,3.5 0 0,1 3.5,0Z" style="opacity: 0.7; stroke-width: 0.5px; fill: rgb(205, 92, 92); fill-opacity: 1; stroke: rgb(47, 79, 79); stroke-opacity: 1;"/><path class="point plotly-customdata" transform="translate(197.25,144.5)" d="M3.5,0A3.5,3.5 0 1,1 0,-3.5A3.5,3.5 0 0,1 3.5,0Z" style="opacity: 0.7; stroke-width: 0.5px; fill: rgb(205, 92, 92); fill-opacity: 1; stroke: rgb(47, 79, 79); stroke-opacity: 1;"/><path class="point plotly-customdata" transform="translate(208.96,17.27)" d="M3.5,0A3.5,3.5 0 1,1 0,-3.5A3.5,3.5 0 0,1 3.5,0Z" style="opacity: 0.7; stroke-width: 0.5px; fill: rgb(205, 92, 92); fill-opacity: 1; stroke: rgb(47, 79, 79); stroke-opacity: 1;"/><path class="point plotly-customdata" transform="translate(206.97,17.27)" d="M3.5,0A3.5,3.5 0 1,1 0,-3.5A3.5,3.5 0 0,1 3.5,0Z" style="opacity: 0.7; stroke-width: 0.5px; fill: rgb(205, 92, 92); fill-opacity: 1; stroke: rgb(47, 79, 79); stroke-opacity: 1;"/><path class="point plotly-customdata" transform="translate(208.85,17.27)" d="M3.5,0A3.5,3.5 0 1,1 0,-3.5A3.5,3.5 0 0,1 3.5,0Z" style="opacity: 0.7; stroke-width: 0.5px; fill: rgb(205, 92, 92); fill-opacity: 1; stroke: rgb(47, 79, 79); stroke-opacity: 1;"/><path class="point plotly-customdata" transform="translate(202.48,96.37)" d="M3.5,0A3.5,3.5 0 1,1 0,-3.5A3.5,3.5 0 0,1 3.5,0Z" style="opacity: 0.7; stroke-width: 0.5px; fill: rgb(205, 92, 92); fill-opacity: 1; stroke: rgb(47, 79, 79); stroke-opacity: 1;"/><path class="point plotly-customdata" transform="translate(209.3,27.21)" d="M3.5,0A3.5,3.5 0 1,1 0,-3.5A3.5,3.5 0 0,1 3.5,0Z" style="opacity: 0.7; stroke-width: 0.5px; fill: rgb(205, 92, 92); fill-opacity: 1; stroke: rgb(47, 79, 79); stroke-opacity: 1;"/><path class="point plotly-customdata" transform="translate(202.35,17.27)" d="M3.5,0A3.5,3.5 0 1,1 0,-3.5A3.5,3.5 0 0,1 3.5,0Z" style="opacity: 0.7; stroke-width: 0.5px; fill: rgb(205, 92, 92); fill-opacity: 1; stroke: rgb(47, 79, 79); stroke-opacity: 1;"/><path class="point plotly-customdata" transform="translate(209.3,27.21)" d="M3.5,0A3.5,3.5 0 1,1 0,-3.5A3.5,3.5 0 0,1 3.5,0Z" style="opacity: 0.7; stroke-width: 0.5px; fill: rgb(205, 92, 92); fill-opacity: 1; stroke: rgb(47, 79, 79); stroke-opacity: 1;"/><path class="point plotly-customdata" transform="translate(213.91,59.45)" d="M3.5,0A3.5,3.5 0 1,1 0,-3.5A3.5,3.5 0 0,1 3.5,0Z" style="opacity: 0.7; stroke-width: 0.5px; fill: rgb(205, 92, 92); fill-opacity: 1; stroke: rgb(47, 79, 79); stroke-opacity: 1;"/><path class="point plotly-customdata" transform="translate(212.84,20.91)" d="M3.5,0A3.5,3.5 0 1,1 0,-3.5A3.5,3.5 0 0,1 3.5,0Z" style="opacity: 0.7; stroke-width: 0.5px; fill: rgb(205, 92, 92); fill-opacity: 1; stroke: rgb(47, 79, 79); stroke-opacity: 1;"/><path class="point plotly-customdata" transform="translate(217.29,46.36)" d="M3.5,0A3.5,3.5 0 1,1 0,-3.5A3.5,3.5 0 0,1 3.5,0Z" style="opacity: 0.7; stroke-width: 0.5px; fill: rgb(205, 92, 92); fill-opacity: 1; stroke: rgb(47, 79, 79); stroke-opacity: 1;"/><path class="point plotly-customdata" transform="translate(212.36,28.18)" d="M3.5,0A3.5,3.5 0 1,1 0,-3.5A3.5,3.5 0 0,1 3.5,0Z" style="opacity: 0.7; stroke-width: 0.5px; fill: rgb(205, 92, 92); fill-opacity: 1; stroke: rgb(47, 79, 79); stroke-opacity: 1;"/><path class="point plotly-customdata" transform="translate(172.27,109.06)" d="M3.5,0A3.5,3.5 0 1,1 0,-3.5A3.5,3.5 0 0,1 3.5,0Z" style="opacity: 0.7; stroke-width: 0.5px; fill: rgb(205, 92, 92); fill-opacity: 1; stroke: rgb(47, 79, 79); stroke-opacity: 1;"/><path class="point plotly-customdata" transform="translate(197.11,17.27)" d="M3.5,0A3.5,3.5 0 1,1 0,-3.5A3.5,3.5 0 0,1 3.5,0Z" style="opacity: 0.7; stroke-width: 0.5px; fill: rgb(205, 92, 92); fill-opacity: 1; stroke: rgb(47, 79, 79); stroke-opacity: 1;"/><path class="point plotly-customdata" transform="translate(172.27,39.09)" d="M3.5,0A3.5,3.5 0 1,1 0,-3.5A3.5,3.5 0 0,1 3.5,0Z" style="opacity: 0.7; stroke-width: 0.5px; fill: rgb(205, 92, 92); fill-opacity: 1; stroke: rgb(47, 79, 79); stroke-opacity: 1;"/><path class="point plotly-customdata" transform="translate(197.11,17.27)" d="M3.5,0A3.5,3.5 0 1,1 0,-3.5A3.5,3.5 0 0,1 3.5,0Z" style="opacity: 0.7; stroke-width: 0.5px; fill: rgb(205, 92, 92); fill-opacity: 1; stroke: rgb(47, 79, 79); stroke-opacity: 1;"/><path class="point plotly-customdata" transform="translate(205.96,70.24)" d="M3.5,0A3.5,3.5 0 1,1 0,-3.5A3.5,3.5 0 0,1 3.5,0Z" style="opacity: 0.7; stroke-width: 0.5px; fill: rgb(205, 92, 92); fill-opacity: 1; stroke: rgb(47, 79, 79); stroke-opacity: 1;"/><path class="point plotly-customdata" transform="translate(212.49,34.91)" d="M3.5,0A3.5,3.5 0 1,1 0,-3.5A3.5,3.5 0 0,1 3.5,0Z" style="opacity: 0.7; stroke-width: 0.5px; fill: rgb(205, 92, 92); fill-opacity: 1; stroke: rgb(47, 79, 79); stroke-opacity: 1;"/><path class="point plotly-customdata" transform="translate(210.86,53.64)" d="M3.5,0A3.5,3.5 0 1,1 0,-3.5A3.5,3.5 0 0,1 3.5,0Z" style="opacity: 0.7; stroke-width: 0.5px; fill: rgb(205, 92, 92); fill-opacity: 1; stroke: rgb(47, 79, 79); stroke-opacity: 1;"/><path class="point plotly-customdata" transform="translate(209.45,71.82)" d="M3.5,0A3.5,3.5 0 1,1 0,-3.5A3.5,3.5 0 0,1 3.5,0Z" style="opacity: 0.7; stroke-width: 0.5px; fill: rgb(205, 92, 92); fill-opacity: 1; stroke: rgb(47, 79, 79); stroke-opacity: 1;"/><path class="point plotly-customdata" transform="translate(216.13,60.18)" d="M3.5,0A3.5,3.5 0 1,1 0,-3.5A3.5,3.5 0 0,1 3.5,0Z" style="opacity: 0.7; stroke-width: 0.5px; fill: rgb(205, 92, 92); fill-opacity: 1; stroke: rgb(47, 79, 79); stroke-opacity: 1;"/><path class="point plotly-customdata" transform="translate(208.81,64.55)" d="M3.5,0A3.5,3.5 0 1,1 0,-3.5A3.5,3.5 0 0,1 3.5,0Z" style="opacity: 0.7; stroke-width: 0.5px; fill: rgb(205, 92, 92); fill-opacity: 1; stroke: rgb(47, 79, 79); stroke-opacity: 1;"/><path class="point plotly-customdata" transform="translate(219.82,62.51)" d="M3.5,0A3.5,3.5 0 1,1 0,-3.5A3.5,3.5 0 0,1 3.5,0Z" style="opacity: 0.7; stroke-width: 0.5px; fill: rgb(205, 92, 92); fill-opacity: 1; stroke: rgb(47, 79, 79); stroke-opacity: 1;"/><path class="point plotly-customdata" transform="translate(225.08,17.27)" d="M3.5,0A3.5,3.5 0 1,1 0,-3.5A3.5,3.5 0 0,1 3.5,0Z" style="opacity: 0.7; stroke-width: 0.5px; fill: rgb(205, 92, 92); fill-opacity: 1; stroke: rgb(47, 79, 79); stroke-opacity: 1;"/><path class="point plotly-customdata" transform="translate(206.97,73.68)" d="M3.5,0A3.5,3.5 0 1,1 0,-3.5A3.5,3.5 0 0,1 3.5,0Z" style="opacity: 0.7; stroke-width: 0.5px; fill: rgb(205, 92, 92); fill-opacity: 1; stroke: rgb(47, 79, 79); stroke-opacity: 1;"/><path class="point plotly-customdata" transform="translate(213.99,17.27)" d="M3.5,0A3.5,3.5 0 1,1 0,-3.5A3.5,3.5 0 0,1 3.5,0Z" style="opacity: 0.7; stroke-width: 0.5px; fill: rgb(205, 92, 92); fill-opacity: 1; stroke: rgb(47, 79, 79); stroke-opacity: 1;"/><path class="point plotly-customdata" transform="translate(186.23,249.05)" d="M3.5,0A3.5,3.5 0 1,1 0,-3.5A3.5,3.5 0 0,1 3.5,0Z" style="opacity: 0.7; stroke-width: 0.5px; fill: rgb(205, 92, 92); fill-opacity: 1; stroke: rgb(47, 79, 79); stroke-opacity: 1;"/><path class="point plotly-customdata" transform="translate(198.32,108.93)" d="M3.5,0A3.5,3.5 0 1,1 0,-3.5A3.5,3.5 0 0,1 3.5,0Z" style="opacity: 0.7; stroke-width: 0.5px; fill: rgb(205, 92, 92); fill-opacity: 1; stroke: rgb(47, 79, 79); stroke-opacity: 1;"/><path class="point plotly-customdata" transform="translate(213.99,17.27)" d="M3.5,0A3.5,3.5 0 1,1 0,-3.5A3.5,3.5 0 0,1 3.5,0Z" style="opacity: 0.7; stroke-width: 0.5px; fill: rgb(205, 92, 92); fill-opacity: 1; stroke: rgb(47, 79, 79); stroke-opacity: 1;"/><path class="point plotly-customdata" transform="translate(197.25,144.5)" d="M3.5,0A3.5,3.5 0 1,1 0,-3.5A3.5,3.5 0 0,1 3.5,0Z" style="opacity: 0.7; stroke-width: 0.5px; fill: rgb(205, 92, 92); fill-opacity: 1; stroke: rgb(47, 79, 79); stroke-opacity: 1;"/><path class="point plotly-customdata" transform="translate(202.76,96.87)" d="M3.5,0A3.5,3.5 0 1,1 0,-3.5A3.5,3.5 0 0,1 3.5,0Z" style="opacity: 0.7; stroke-width: 0.5px; fill: rgb(205, 92, 92); fill-opacity: 1; stroke: rgb(47, 79, 79); stroke-opacity: 1;"/><path class="point plotly-customdata" transform="translate(181.53,202.87)" d="M3.5,0A3.5,3.5 0 1,1 0,-3.5A3.5,3.5 0 0,1 3.5,0Z" style="opacity: 0.7; stroke-width: 0.5px; fill: rgb(205, 92, 92); fill-opacity: 1; stroke: rgb(47, 79, 79); stroke-opacity: 1;"/><path class="point plotly-customdata" transform="translate(213.5,17.27)" d="M3.5,0A3.5,3.5 0 1,1 0,-3.5A3.5,3.5 0 0,1 3.5,0Z" style="opacity: 0.7; stroke-width: 0.5px; fill: rgb(205, 92, 92); fill-opacity: 1; stroke: rgb(47, 79, 79); stroke-opacity: 1;"/><path class="point plotly-customdata" transform="translate(203.53,124.34)" d="M3.5,0A3.5,3.5 0 1,1 0,-3.5A3.5,3.5 0 0,1 3.5,0Z" style="opacity: 0.7; stroke-width: 0.5px; fill: rgb(205, 92, 92); fill-opacity: 1; stroke: rgb(47, 79, 79); stroke-opacity: 1;"/><path class="point plotly-customdata" transform="translate(213.75,78.47)" d="M3.5,0A3.5,3.5 0 1,1 0,-3.5A3.5,3.5 0 0,1 3.5,0Z" style="opacity: 0.7; stroke-width: 0.5px; fill: rgb(205, 92, 92); fill-opacity: 1; stroke: rgb(47, 79, 79); stroke-opacity: 1;"/><path class="point plotly-customdata" transform="translate(206.51,24.55)" d="M3.5,0A3.5,3.5 0 1,1 0,-3.5A3.5,3.5 0 0,1 3.5,0Z" style="opacity: 0.7; stroke-width: 0.5px; fill: rgb(205, 92, 92); fill-opacity: 1; stroke: rgb(47, 79, 79); stroke-opacity: 1;"/><path class="point plotly-customdata" transform="translate(213.75,78.47)" d="M3.5,0A3.5,3.5 0 1,1 0,-3.5A3.5,3.5 0 0,1 3.5,0Z" style="opacity: 0.7; stroke-width: 0.5px; fill: rgb(205, 92, 92); fill-opacity: 1; stroke: rgb(47, 79, 79); stroke-opacity: 1;"/><path class="point plotly-customdata" transform="translate(208.41,91.86)" d="M3.5,0A3.5,3.5 0 1,1 0,-3.5A3.5,3.5 0 0,1 3.5,0Z" style="opacity: 0.7; stroke-width: 0.5px; fill: rgb(205, 92, 92); fill-opacity: 1; stroke: rgb(47, 79, 79); stroke-opacity: 1;"/><path class="point plotly-customdata" transform="translate(204.71,67.28)" d="M3.5,0A3.5,3.5 0 1,1 0,-3.5A3.5,3.5 0 0,1 3.5,0Z" style="opacity: 0.7; stroke-width: 0.5px; fill: rgb(205, 92, 92); fill-opacity: 1; stroke: rgb(47, 79, 79); stroke-opacity: 1;"/><path class="point plotly-customdata" transform="translate(194.92,17.27)" d="M3.5,0A3.5,3.5 0 1,1 0,-3.5A3.5,3.5 0 0,1 3.5,0Z" style="opacity: 0.7; stroke-width: 0.5px; fill: rgb(205, 92, 92); fill-opacity: 1; stroke: rgb(47, 79, 79); stroke-opacity: 1;"/><path class="point plotly-customdata" transform="translate(203.53,124.34)" d="M3.5,0A3.5,3.5 0 1,1 0,-3.5A3.5,3.5 0 0,1 3.5,0Z" style="opacity: 0.7; stroke-width: 0.5px; fill: rgb(205, 92, 92); fill-opacity: 1; stroke: rgb(47, 79, 79); stroke-opacity: 1;"/><path class="point plotly-customdata" transform="translate(206.51,24.55)" d="M3.5,0A3.5,3.5 0 1,1 0,-3.5A3.5,3.5 0 0,1 3.5,0Z" style="opacity: 0.7; stroke-width: 0.5px; fill: rgb(205, 92, 92); fill-opacity: 1; stroke: rgb(47, 79, 79); stroke-opacity: 1;"/><path class="point plotly-customdata" transform="translate(207.92,54.59)" d="M3.5,0A3.5,3.5 0 1,1 0,-3.5A3.5,3.5 0 0,1 3.5,0Z" style="opacity: 0.7; stroke-width: 0.5px; fill: rgb(205, 92, 92); fill-opacity: 1; stroke: rgb(47, 79, 79); stroke-opacity: 1;"/><path class="point plotly-customdata" transform="translate(202.35,17.27)" d="M3.5,0A3.5,3.5 0 1,1 0,-3.5A3.5,3.5 0 0,1 3.5,0Z" style="opacity: 0.7; stroke-width: 0.5px; fill: rgb(205, 92, 92); fill-opacity: 1; stroke: rgb(47, 79, 79); stroke-opacity: 1;"/><path class="point plotly-customdata" transform="translate(202.48,96.37)" d="M3.5,0A3.5,3.5 0 1,1 0,-3.5A3.5,3.5 0 0,1 3.5,0Z" style="opacity: 0.7; stroke-width: 0.5px; fill: rgb(205, 92, 92); fill-opacity: 1; stroke: rgb(47, 79, 79); stroke-opacity: 1;"/><path class="point plotly-customdata" transform="translate(215.7,17.27)" d="M3.5,0A3.5,3.5 0 1,1 0,-3.5A3.5,3.5 0 0,1 3.5,0Z" style="opacity: 0.7; stroke-width: 0.5px; fill: rgb(205, 92, 92); fill-opacity: 1; stroke: rgb(47, 79, 79); stroke-opacity: 1;"/><path class="point plotly-customdata" transform="translate(207.88,113.31)" d="M3.5,0A3.5,3.5 0 1,1 0,-3.5A3.5,3.5 0 0,1 3.5,0Z" style="opacity: 0.7; stroke-width: 0.5px; fill: rgb(205, 92, 92); fill-opacity: 1; stroke: rgb(47, 79, 79); stroke-opacity: 1;"/><path class="point plotly-customdata" transform="translate(208.73,28.18)" d="M3.5,0A3.5,3.5 0 1,1 0,-3.5A3.5,3.5 0 0,1 3.5,0Z" style="opacity: 0.7; stroke-width: 0.5px; fill: rgb(205, 92, 92); fill-opacity: 1; stroke: rgb(47, 79, 79); stroke-opacity: 1;"/><path class="point plotly-customdata" transform="translate(214.92,68.69)" d="M3.5,0A3.5,3.5 0 1,1 0,-3.5A3.5,3.5 0 0,1 3.5,0Z" style="opacity: 0.7; stroke-width: 0.5px; fill: rgb(205, 92, 92); fill-opacity: 1; stroke: rgb(47, 79, 79); stroke-opacity: 1;"/><path class="point plotly-customdata" transform="translate(209.37,42.73)" d="M3.5,0A3.5,3.5 0 1,1 0,-3.5A3.5,3.5 0 0,1 3.5,0Z" style="opacity: 0.7; stroke-width: 0.5px; fill: rgb(205, 92, 92); fill-opacity: 1; stroke: rgb(47, 79, 79); stroke-opacity: 1;"/><path class="point plotly-customdata" transform="translate(206.43,49.71)" d="M3.5,0A3.5,3.5 0 1,1 0,-3.5A3.5,3.5 0 0,1 3.5,0Z" style="opacity: 0.7; stroke-width: 0.5px; fill: rgb(205, 92, 92); fill-opacity: 1; stroke: rgb(47, 79, 79); stroke-opacity: 1;"/><path class="point plotly-customdata" transform="translate(188.61,123.68)" d="M3.5,0A3.5,3.5 0 1,1 0,-3.5A3.5,3.5 0 0,1 3.5,0Z" style="opacity: 0.7; stroke-width: 0.5px; fill: rgb(205, 92, 92); fill-opacity: 1; stroke: rgb(47, 79, 79); stroke-opacity: 1;"/><path class="point plotly-customdata" transform="translate(216.85,56.48)" d="M3.5,0A3.5,3.5 0 1,1 0,-3.5A3.5,3.5 0 0,1 3.5,0Z" style="opacity: 0.7; stroke-width: 0.5px; fill: rgb(205, 92, 92); fill-opacity: 1; stroke: rgb(47, 79, 79); stroke-opacity: 1;"/><path class="point plotly-customdata" transform="translate(204.91,53.27)" d="M3.5,0A3.5,3.5 0 1,1 0,-3.5A3.5,3.5 0 0,1 3.5,0Z" style="opacity: 0.7; stroke-width: 0.5px; fill: rgb(205, 92, 92); fill-opacity: 1; stroke: rgb(47, 79, 79); stroke-opacity: 1;"/><path class="point plotly-customdata" transform="translate(215.53,76.29)" d="M3.5,0A3.5,3.5 0 1,1 0,-3.5A3.5,3.5 0 0,1 3.5,0Z" style="opacity: 0.7; stroke-width: 0.5px; fill: rgb(205, 92, 92); fill-opacity: 1; stroke: rgb(47, 79, 79); stroke-opacity: 1;"/><path class="point plotly-customdata" transform="translate(210.55,31.82)" d="M3.5,0A3.5,3.5 0 1,1 0,-3.5A3.5,3.5 0 0,1 3.5,0Z" style="opacity: 0.7; stroke-width: 0.5px; fill: rgb(205, 92, 92); fill-opacity: 1; stroke: rgb(47, 79, 79); stroke-opacity: 1;"/><path class="point plotly-customdata" transform="translate(210.95,68.27)" d="M3.5,0A3.5,3.5 0 1,1 0,-3.5A3.5,3.5 0 0,1 3.5,0Z" style="opacity: 0.7; stroke-width: 0.5px; fill: rgb(205, 92, 92); fill-opacity: 1; stroke: rgb(47, 79, 79); stroke-opacity: 1;"/><path class="point plotly-customdata" transform="translate(212.58,39.09)" d="M3.5,0A3.5,3.5 0 1,1 0,-3.5A3.5,3.5 0 0,1 3.5,0Z" style="opacity: 0.7; stroke-width: 0.5px; fill: rgb(205, 92, 92); fill-opacity: 1; stroke: rgb(47, 79, 79); stroke-opacity: 1;"/><path class="point plotly-customdata" transform="translate(188.61,123.68)" d="M3.5,0A3.5,3.5 0 1,1 0,-3.5A3.5,3.5 0 0,1 3.5,0Z" style="opacity: 0.7; stroke-width: 0.5px; fill: rgb(205, 92, 92); fill-opacity: 1; stroke: rgb(47, 79, 79); stroke-opacity: 1;"/><path class="point plotly-customdata" transform="translate(206.43,49.71)" d="M3.5,0A3.5,3.5 0 1,1 0,-3.5A3.5,3.5 0 0,1 3.5,0Z" style="opacity: 0.7; stroke-width: 0.5px; fill: rgb(205, 92, 92); fill-opacity: 1; stroke: rgb(47, 79, 79); stroke-opacity: 1;"/><path class="point plotly-customdata" transform="translate(212.58,39.09)" d="M3.5,0A3.5,3.5 0 1,1 0,-3.5A3.5,3.5 0 0,1 3.5,0Z" style="opacity: 0.7; stroke-width: 0.5px; fill: rgb(205, 92, 92); fill-opacity: 1; stroke: rgb(47, 79, 79); stroke-opacity: 1;"/><path class="point plotly-customdata" transform="translate(172.27,93.19)" d="M3.5,0A3.5,3.5 0 1,1 0,-3.5A3.5,3.5 0 0,1 3.5,0Z" style="opacity: 0.7; stroke-width: 0.5px; fill: rgb(205, 92, 92); fill-opacity: 1; stroke: rgb(47, 79, 79); stroke-opacity: 1;"/><path class="point plotly-customdata" transform="translate(211.04,57.27)" d="M3.5,0A3.5,3.5 0 1,1 0,-3.5A3.5,3.5 0 0,1 3.5,0Z" style="opacity: 0.7; stroke-width: 0.5px; fill: rgb(205, 92, 92); fill-opacity: 1; stroke: rgb(47, 79, 79); stroke-opacity: 1;"/><path class="point plotly-customdata" transform="translate(202.76,96.87)" d="M3.5,0A3.5,3.5 0 1,1 0,-3.5A3.5,3.5 0 0,1 3.5,0Z" style="opacity: 0.7; stroke-width: 0.5px; fill: rgb(205, 92, 92); fill-opacity: 1; stroke: rgb(47, 79, 79); stroke-opacity: 1;"/><path class="point plotly-customdata" transform="translate(195.95,168.68)" d="M3.5,0A3.5,3.5 0 1,1 0,-3.5A3.5,3.5 0 0,1 3.5,0Z" style="opacity: 0.7; stroke-width: 0.5px; fill: rgb(205, 92, 92); fill-opacity: 1; stroke: rgb(47, 79, 79); stroke-opacity: 1;"/><path class="point plotly-customdata" transform="translate(211.04,57.27)" d="M3.5,0A3.5,3.5 0 1,1 0,-3.5A3.5,3.5 0 0,1 3.5,0Z" style="opacity: 0.7; stroke-width: 0.5px; fill: rgb(205, 92, 92); fill-opacity: 1; stroke: rgb(47, 79, 79); stroke-opacity: 1;"/><path class="point plotly-customdata" transform="translate(181.53,202.87)" d="M3.5,0A3.5,3.5 0 1,1 0,-3.5A3.5,3.5 0 0,1 3.5,0Z" style="opacity: 0.7; stroke-width: 0.5px; fill: rgb(205, 92, 92); fill-opacity: 1; stroke: rgb(47, 79, 79); stroke-opacity: 1;"/><path class="point plotly-customdata" transform="translate(204.56,54.55)" d="M3.5,0A3.5,3.5 0 1,1 0,-3.5A3.5,3.5 0 0,1 3.5,0Z" style="opacity: 0.7; stroke-width: 0.5px; fill: rgb(205, 92, 92); fill-opacity: 1; stroke: rgb(47, 79, 79); stroke-opacity: 1;"/><path class="point plotly-customdata" transform="translate(172.27,48.51)" d="M3.5,0A3.5,3.5 0 1,1 0,-3.5A3.5,3.5 0 0,1 3.5,0Z" style="opacity: 0.7; stroke-width: 0.5px; fill: rgb(205, 92, 92); fill-opacity: 1; stroke: rgb(47, 79, 79); stroke-opacity: 1;"/><path class="point plotly-customdata" transform="translate(227.31,64.05)" d="M3.5,0A3.5,3.5 0 1,1 0,-3.5A3.5,3.5 0 0,1 3.5,0Z" style="opacity: 0.7; stroke-width: 0.5px; fill: rgb(205, 92, 92); fill-opacity: 1; stroke: rgb(47, 79, 79); stroke-opacity: 1;"/><path class="point plotly-customdata" transform="translate(224.01,82.99)" d="M3.5,0A3.5,3.5 0 1,1 0,-3.5A3.5,3.5 0 0,1 3.5,0Z" style="opacity: 0.7; stroke-width: 0.5px; fill: rgb(205, 92, 92); fill-opacity: 1; stroke: rgb(47, 79, 79); stroke-opacity: 1;"/><path class="point plotly-customdata" transform="translate(209.29,60.91)" d="M3.5,0A3.5,3.5 0 1,1 0,-3.5A3.5,3.5 0 0,1 3.5,0Z" style="opacity: 0.7; stroke-width: 0.5px; fill: rgb(205, 92, 92); fill-opacity: 1; stroke: rgb(47, 79, 79); stroke-opacity: 1;"/><path class="point plotly-customdata" transform="translate(236.93,69.02)" d="M3.5,0A3.5,3.5 0 1,1 0,-3.5A3.5,3.5 0 0,1 3.5,0Z" style="opacity: 0.7; stroke-width: 0.5px; fill: rgb(205, 92, 92); fill-opacity: 1; stroke: rgb(47, 79, 79); stroke-opacity: 1;"/><path class="point plotly-customdata" transform="translate(210.77,57.27)" d="M3.5,0A3.5,3.5 0 1,1 0,-3.5A3.5,3.5 0 0,1 3.5,0Z" style="opacity: 0.7; stroke-width: 0.5px; fill: rgb(205, 92, 92); fill-opacity: 1; stroke: rgb(47, 79, 79); stroke-opacity: 1;"/><path class="point plotly-customdata" transform="translate(219.32,53.64)" d="M3.5,0A3.5,3.5 0 1,1 0,-3.5A3.5,3.5 0 0,1 3.5,0Z" style="opacity: 0.7; stroke-width: 0.5px; fill: rgb(205, 92, 92); fill-opacity: 1; stroke: rgb(47, 79, 79); stroke-opacity: 1;"/><path class="point plotly-customdata" transform="translate(207.07,17.27)" d="M3.5,0A3.5,3.5 0 1,1 0,-3.5A3.5,3.5 0 0,1 3.5,0Z" style="opacity: 0.7; stroke-width: 0.5px; fill: rgb(205, 92, 92); fill-opacity: 1; stroke: rgb(47, 79, 79); stroke-opacity: 1;"/><path class="point plotly-customdata" transform="translate(216.89,53.64)" d="M3.5,0A3.5,3.5 0 1,1 0,-3.5A3.5,3.5 0 0,1 3.5,0Z" style="opacity: 0.7; stroke-width: 0.5px; fill: rgb(205, 92, 92); fill-opacity: 1; stroke: rgb(47, 79, 79); stroke-opacity: 1;"/><path class="point plotly-customdata" transform="translate(202.62,46)" d="M3.5,0A3.5,3.5 0 1,1 0,-3.5A3.5,3.5 0 0,1 3.5,0Z" style="opacity: 0.7; stroke-width: 0.5px; fill: rgb(205, 92, 92); fill-opacity: 1; stroke: rgb(47, 79, 79); stroke-opacity: 1;"/><path class="point plotly-customdata" transform="translate(193.52,103.68)" d="M3.5,0A3.5,3.5 0 1,1 0,-3.5A3.5,3.5 0 0,1 3.5,0Z" style="opacity: 0.7; stroke-width: 0.5px; fill: rgb(205, 92, 92); fill-opacity: 1; stroke: rgb(47, 79, 79); stroke-opacity: 1;"/><path class="point plotly-customdata" transform="translate(211.3,46.36)" d="M3.5,0A3.5,3.5 0 1,1 0,-3.5A3.5,3.5 0 0,1 3.5,0Z" style="opacity: 0.7; stroke-width: 0.5px; fill: rgb(205, 92, 92); fill-opacity: 1; stroke: rgb(47, 79, 79); stroke-opacity: 1;"/><path class="point plotly-customdata" transform="translate(202.62,46)" d="M3.5,0A3.5,3.5 0 1,1 0,-3.5A3.5,3.5 0 0,1 3.5,0Z" style="opacity: 0.7; stroke-width: 0.5px; fill: rgb(205, 92, 92); fill-opacity: 1; stroke: rgb(47, 79, 79); stroke-opacity: 1;"/><path class="point plotly-customdata" transform="translate(202.51,72.66)" d="M3.5,0A3.5,3.5 0 1,1 0,-3.5A3.5,3.5 0 0,1 3.5,0Z" style="opacity: 0.7; stroke-width: 0.5px; fill: rgb(205, 92, 92); fill-opacity: 1; stroke: rgb(47, 79, 79); stroke-opacity: 1;"/><path class="point plotly-customdata" transform="translate(211.3,46.36)" d="M3.5,0A3.5,3.5 0 1,1 0,-3.5A3.5,3.5 0 0,1 3.5,0Z" style="opacity: 0.7; stroke-width: 0.5px; fill: rgb(205, 92, 92); fill-opacity: 1; stroke: rgb(47, 79, 79); stroke-opacity: 1;"/><path class="point plotly-customdata" transform="translate(193.52,103.68)" d="M3.5,0A3.5,3.5 0 1,1 0,-3.5A3.5,3.5 0 0,1 3.5,0Z" style="opacity: 0.7; stroke-width: 0.5px; fill: rgb(205, 92, 92); fill-opacity: 1; stroke: rgb(47, 79, 79); stroke-opacity: 1;"/><path class="point plotly-customdata" transform="translate(172.27,28.18)" d="M3.5,0A3.5,3.5 0 1,1 0,-3.5A3.5,3.5 0 0,1 3.5,0Z" style="opacity: 0.7; stroke-width: 0.5px; fill: rgb(205, 92, 92); fill-opacity: 1; stroke: rgb(47, 79, 79); stroke-opacity: 1;"/><path class="point plotly-customdata" transform="translate(172.27,23.45)" d="M3.5,0A3.5,3.5 0 1,1 0,-3.5A3.5,3.5 0 0,1 3.5,0Z" style="opacity: 0.7; stroke-width: 0.5px; fill: rgb(205, 92, 92); fill-opacity: 1; stroke: rgb(47, 79, 79); stroke-opacity: 1;"/><path class="point plotly-customdata" transform="translate(212.39,17.27)" d="M3.5,0A3.5,3.5 0 1,1 0,-3.5A3.5,3.5 0 0,1 3.5,0Z" style="opacity: 0.7; stroke-width: 0.5px; fill: rgb(205, 92, 92); fill-opacity: 1; stroke: rgb(47, 79, 79); stroke-opacity: 1;"/><path class="point plotly-customdata" transform="translate(194.92,17.27)" d="M3.5,0A3.5,3.5 0 1,1 0,-3.5A3.5,3.5 0 0,1 3.5,0Z" style="opacity: 0.7; stroke-width: 0.5px; fill: rgb(205, 92, 92); fill-opacity: 1; stroke: rgb(47, 79, 79); stroke-opacity: 1;"/><path class="point plotly-customdata" transform="translate(204.71,67.28)" d="M3.5,0A3.5,3.5 0 1,1 0,-3.5A3.5,3.5 0 0,1 3.5,0Z" style="opacity: 0.7; stroke-width: 0.5px; fill: rgb(205, 92, 92); fill-opacity: 1; stroke: rgb(47, 79, 79); stroke-opacity: 1;"/><path class="point plotly-customdata" transform="translate(212.39,17.27)" d="M3.5,0A3.5,3.5 0 1,1 0,-3.5A3.5,3.5 0 0,1 3.5,0Z" style="opacity: 0.7; stroke-width: 0.5px; fill: rgb(205, 92, 92); fill-opacity: 1; stroke: rgb(47, 79, 79); stroke-opacity: 1;"/><path class="point plotly-customdata" transform="translate(172.27,91.28)" d="M3.5,0A3.5,3.5 0 1,1 0,-3.5A3.5,3.5 0 0,1 3.5,0Z" style="opacity: 0.7; stroke-width: 0.5px; fill: rgb(205, 92, 92); fill-opacity: 1; stroke: rgb(47, 79, 79); stroke-opacity: 1;"/><path class="point plotly-customdata" transform="translate(180.1,172.89)" d="M3.5,0A3.5,3.5 0 1,1 0,-3.5A3.5,3.5 0 0,1 3.5,0Z" style="opacity: 0.7; stroke-width: 0.5px; fill: rgb(205, 92, 92); fill-opacity: 1; stroke: rgb(47, 79, 79); stroke-opacity: 1;"/><path class="point plotly-customdata" transform="translate(172.27,96.68)" d="M3.5,0A3.5,3.5 0 1,1 0,-3.5A3.5,3.5 0 0,1 3.5,0Z" style="opacity: 0.7; stroke-width: 0.5px; fill: rgb(205, 92, 92); fill-opacity: 1; stroke: rgb(47, 79, 79); stroke-opacity: 1;"/><path class="point plotly-customdata" transform="translate(180.1,172.89)" d="M3.5,0A3.5,3.5 0 1,1 0,-3.5A3.5,3.5 0 0,1 3.5,0Z" style="opacity: 0.7; stroke-width: 0.5px; fill: rgb(205, 92, 92); fill-opacity: 1; stroke: rgb(47, 79, 79); stroke-opacity: 1;"/><path class="point plotly-customdata" transform="translate(205.15,52.6)" d="M3.5,0A3.5,3.5 0 1,1 0,-3.5A3.5,3.5 0 0,1 3.5,0Z" style="opacity: 0.7; stroke-width: 0.5px; fill: rgb(205, 92, 92); fill-opacity: 1; stroke: rgb(47, 79, 79); stroke-opacity: 1;"/><path class="point plotly-customdata" transform="translate(172.27,96.68)" d="M3.5,0A3.5,3.5 0 1,1 0,-3.5A3.5,3.5 0 0,1 3.5,0Z" style="opacity: 0.7; stroke-width: 0.5px; fill: rgb(205, 92, 92); fill-opacity: 1; stroke: rgb(47, 79, 79); stroke-opacity: 1;"/><path class="point plotly-customdata" transform="translate(172.27,91.28)" d="M3.5,0A3.5,3.5 0 1,1 0,-3.5A3.5,3.5 0 0,1 3.5,0Z" style="opacity: 0.7; stroke-width: 0.5px; fill: rgb(205, 92, 92); fill-opacity: 1; stroke: rgb(47, 79, 79); stroke-opacity: 1;"/><path class="point plotly-customdata" transform="translate(172.27,39.09)" d="M3.5,0A3.5,3.5 0 1,1 0,-3.5A3.5,3.5 0 0,1 3.5,0Z" style="opacity: 0.7; stroke-width: 0.5px; fill: rgb(205, 92, 92); fill-opacity: 1; stroke: rgb(47, 79, 79); stroke-opacity: 1;"/><path class="point plotly-customdata" transform="translate(172.27,109.06)" d="M3.5,0A3.5,3.5 0 1,1 0,-3.5A3.5,3.5 0 0,1 3.5,0Z" style="opacity: 0.7; stroke-width: 0.5px; fill: rgb(205, 92, 92); fill-opacity: 1; stroke: rgb(47, 79, 79); stroke-opacity: 1;"/></g><g class="text"/></g></g></g><g class="overplot"/><path class="xlines-above crisp" d="M69,480.5H760" style="fill: none; stroke-width: 1px; stroke: rgb(0, 0, 0); stroke-opacity: 1;"/><path class="ylines-above crisp" d="M69.5,100V480" style="fill: none; stroke-width: 1px; stroke: rgb(0, 0, 0); stroke-opacity: 1;"/><g class="overlines-above"/><g class="xaxislayer-above"><g class="xtick"><text text-anchor="middle" x="0" y="495.4" transform="translate(78.64,0)" style="font-family: Arial, sans-serif; font-size: 12px; fill: rgb(42, 63, 95); fill-opacity: 1; white-space: pre; opacity: 1;">−0.4</text></g><g class="xtick"><text text-anchor="middle" x="0" y="495.4" style="font-family: Arial, sans-serif; font-size: 12px; fill: rgb(42, 63, 95); fill-opacity: 1; white-space: pre; opacity: 1;" transform="translate(151.36,0)">−0.2</text></g><g class="xtick"><text text-anchor="middle" x="0" y="495.4" style="font-family: Arial, sans-serif; font-size: 12px; fill: rgb(42, 63, 95); fill-opacity: 1; white-space: pre; opacity: 1;" transform="translate(224.09,0)">0</text></g><g class="xtick"><text text-anchor="middle" x="0" y="495.4" style="font-family: Arial, sans-serif; font-size: 12px; fill: rgb(42, 63, 95); fill-opacity: 1; white-space: pre; opacity: 1;" transform="translate(296.82,0)">0.2</text></g><g class="xtick"><text text-anchor="middle" x="0" y="495.4" style="font-family: Arial, sans-serif; font-size: 12px; fill: rgb(42, 63, 95); fill-opacity: 1; white-space: pre; opacity: 1;" transform="translate(369.55,0)">0.4</text></g><g class="xtick"><text text-anchor="middle" x="0" y="495.4" style="font-family: Arial, sans-serif; font-size: 12px; fill: rgb(42, 63, 95); fill-opacity: 1; white-space: pre; opacity: 1;" transform="translate(442.27,0)">0.6</text></g><g class="xtick"><text text-anchor="middle" x="0" y="495.4" style="font-family: Arial, sans-serif; font-size: 12px; fill: rgb(42, 63, 95); fill-opacity: 1; white-space: pre; opacity: 1;" transform="translate(515,0)">0.8</text></g><g class="xtick"><text text-anchor="middle" x="0" y="495.4" style="font-family: Arial, sans-serif; font-size: 12px; fill: rgb(42, 63, 95); fill-opacity: 1; white-space: pre; opacity: 1;" transform="translate(587.73,0)">1</text></g><g class="xtick"><text text-anchor="middle" x="0" y="495.4" style="font-family: Arial, sans-serif; font-size: 12px; fill: rgb(42, 63, 95); fill-opacity: 1; white-space: pre; opacity: 1;" transform="translate(660.45,0)">1.2</text></g><g class="xtick"><text text-anchor="middle" x="0" y="495.4" style="font-family: Arial, sans-serif; font-size: 12px; fill: rgb(42, 63, 95); fill-opacity: 1; white-space: pre; opacity: 1;" transform="translate(733.18,0)">1.4</text></g></g><g class="yaxislayer-above"><g class="ytick"><text text-anchor="end" x="66.6" y="4.199999999999999" transform="translate(0,408.18)" style="font-family: Arial, sans-serif; font-size: 12px; fill: rgb(42, 63, 95); fill-opacity: 1; white-space: pre; opacity: 1;">0.2</text></g><g class="ytick"><text text-anchor="end" x="66.6" y="4.199999999999999" style="font-family: Arial, sans-serif; font-size: 12px; fill: rgb(42, 63, 95); fill-opacity: 1; white-space: pre; opacity: 1;" transform="translate(0,335.45)">0.4</text></g><g class="ytick"><text text-anchor="end" x="66.6" y="4.199999999999999" style="font-family: Arial, sans-serif; font-size: 12px; fill: rgb(42, 63, 95); fill-opacity: 1; white-space: pre; opacity: 1;" transform="translate(0,262.73)">0.6</text></g><g class="ytick"><text text-anchor="end" x="66.6" y="4.199999999999999" style="font-family: Arial, sans-serif; font-size: 12px; fill: rgb(42, 63, 95); fill-opacity: 1; white-space: pre; opacity: 1;" transform="translate(0,190)">0.8</text></g><g class="ytick"><text text-anchor="end" x="66.6" y="4.199999999999999" style="font-family: Arial, sans-serif; font-size: 12px; fill: rgb(42, 63, 95); fill-opacity: 1; white-space: pre; opacity: 1;" transform="translate(0,117.27)">1</text></g></g><g class="overaxes-above"/></g></g><g class="polarlayer"/><g class="smithlayer"/><g class="ternarylayer"/><g class="geolayer"/><g class="funnelarealayer"/><g class="pielayer"/><g class="iciclelayer"/><g class="treemaplayer"/><g class="sunburstlayer"/><g class="glimages"/><defs id="topdefs-9a0a93"><g class="clips"/><clipPath id="legend9a0a93"><rect width="135" height="48" x="1" y="1"/></clipPath></defs><g class="layer-above"><g class="imagelayer"/><g class="shapelayer"><g class="shape-group" data-index="0" clip-path="url(#clip9a0a93xy)"><path data-index="0" fill-rule="evenodd" d="M225,480L605,100" style="opacity: 1; stroke: rgb(128, 128, 128); stroke-opacity: 1; fill: rgb(0, 0, 0); fill-opacity: 0; stroke-dasharray: 3px, 3px; stroke-width: 1.5px;"/></g></g></g><g class="infolayer"><g class="legend" pointer-events="all" transform="translate(83.8,107.60000000000001)"><rect class="bg" shape-rendering="crispEdges" width="136" height="49" x="0.5" y="0.5" style="stroke: rgb(211, 211, 211); stroke-opacity: 1; fill: rgb(255, 255, 255); fill-opacity: 0.7; stroke-width: 1px;"/><g class="scrollbox" transform="" clip-path="url(#legend9a0a93)"><text class="legendtitletext" text-anchor="start" x="3" y="19.2" style="font-family: Arial, sans-serif; font-size: 14px; fill: rgb(42, 63, 95); fill-opacity: 1; white-space: pre;">Optimization Action</text><g class="groups" transform=""><g class="traces" transform="translate(1,33.7)" style="opacity: 1;"><text class="legendtext" text-anchor="start" x="40" y="4.680000000000001" style="font-family: Arial, sans-serif; font-size: 12px; fill: rgb(42, 63, 95); fill-opacity: 1; white-space: pre;">Setting Changed</text><g class="layers" style="opacity: 1;"><g class="legendfill"/><g class="legendlines"/><g class="legendsymbols"><g class="legendpoints"><path class="scatterpts" transform="translate(20,0)" d="M3.5,0A3.5,3.5 0 1,1 0,-3.5A3.5,3.5 0 0,1 3.5,0Z" style="opacity: 0.7; stroke-width: 0.5px; fill: rgb(205, 92, 92); fill-opacity: 1; stroke: rgb(47, 79, 79); stroke-opacity: 1;"/></g></g></g><rect class="legendtoggle" x="0" y="-9.5" width="129.40625" height="19" style="fill: rgb(0, 0, 0); fill-opacity: 0;"/></g></g></g><rect class="scrollbar" rx="20" ry="3" width="0" height="0" x="0" y="0" style="fill: rgb(128, 139, 164); fill-opacity: 1;"/></g><g class="g-gtitle"><text class="gtitle" x="40" y="50" text-anchor="start" dy="0em" style="font-family: Arial, sans-serif; font-size: 18px; fill: rgb(42, 63, 95); opacity: 1; font-weight: normal; white-space: pre;"><tspan class="line" dy="0em" x="40" y="50">Backup Relay TDS Setting Comparison: Before vs After</tspan><tspan class="line" dy="1.3em" x="40" y="50">Scenario: scenario_1 (100 Pairs Changed)</tspan></text></g><g class="g-xtitle"><text class="xtitle" x="415" y="522.70625" text-anchor="middle" style="font-family: Arial, sans-serif; font-size: 14px; fill: rgb(42, 63, 95); opacity: 1; font-weight: normal; white-space: pre;">Backup Relay TDS Before Optimization</text></g><g class="g-ytitle"><text class="ytitle" transform="rotate(-90,25.606250000000003,290)" x="25.606250000000003" y="290" text-anchor="middle" style="font-family: Arial, sans-serif; font-size: 14px; fill: rgb(42, 63, 95); opacity: 1; font-weight: normal; white-space: pre;">Backup Relay TDS After Optimization</text></g><g class="annotation" data-index="0" style="opacity: 1;"><g class="annotation-text-g" transform="rotate(0,565,115)"><g class="cursor-pointer" transform="translate(503,107)"><rect class="bg" x="0.5" y="0.5" width="124" height="15" style="stroke-width: 1px; stroke: rgb(0, 0, 0); stroke-opacity: 0; fill: rgb(0, 0, 0); fill-opacity: 0;"/><text class="annotation-text" text-anchor="middle" x="62.390625" y="12" style="font-family: Arial, sans-serif; font-size: 11px; fill: rgb(128, 128, 128); fill-opacity: 1; white-space: pre;">No Setting Change (y=x)</text></g></g></g></g></svg>